HIERARCHY
ROOT root
{
	OFFSET 0.000000 0.000000 0.000000
	CHANNELS 6 Xposition Yposition Zposition Zrotation Yrotation Xrotation
	JOINT lhip
	{
		OFFSET 0.058581 -0.082280 -0.017664
		CHANNELS 3 Zrotation Yrotation Xrotation
		JOINT lknee
		{
			OFFSET 0.043451 -0.386469 0.008037
			CHANNELS 3 Zrotation Yrotation Xrotation
			JOINT lankle
			{
				OFFSET -0.014790 -0.426874 -0.037428
				CHANNELS 3 Zrotation Yrotation Xrotation
				JOINT ltoe
				{
					OFFSET 0.041054 -0.060286 0.122042
					CHANNELS 3 Zrotation Yrotation Xrotation
					End Site
					{
						OFFSET 0.000000 0.000000 0.000000
					}
				}
			}
		}
	}
	JOINT rhip
	{
		OFFSET -0.060310 -0.090513 -0.013543
		CHANNELS 3 Zrotation Yrotation Xrotation
		JOINT rknee
		{
			OFFSET -0.043257 -0.383688 -0.004843
			CHANNELS 3 Zrotation Yrotation Xrotation
			JOINT rankle
			{
				OFFSET 0.019056 -0.420046 -0.034562
				CHANNELS 3 Zrotation Yrotation Xrotation
				JOINT rtoe
				{
					OFFSET -0.034840 -0.062106 0.130323
					CHANNELS 3 Zrotation Yrotation Xrotation
					End Site
					{
						OFFSET 0.000000 0.000000 0.000000
					}
				}
			}
		}
	}
	JOINT lowerback
	{
		OFFSET 0.004439 0.124404 -0.038385
		CHANNELS 3 Zrotation Yrotation Xrotation
		JOINT upperback
		{
			OFFSET 0.004488 0.137956 0.026820
			CHANNELS 3 Zrotation Yrotation Xrotation
			JOINT chest
			{
				OFFSET -0.002265 0.056032 0.002855
				CHANNELS 3 Zrotation Yrotation Xrotation
				JOINT lowerneck
				{
					OFFSET -0.013390 0.211636 -0.033468
					CHANNELS 3 Zrotation Yrotation Xrotation
					JOINT upperneck
					{
						OFFSET 0.010113 0.088937 0.050410
						CHANNELS 3 Zrotation Yrotation Xrotation
						End Site
						{
							OFFSET 0.000000 0.000000 0.000000
						}
					}
				}
				JOINT lclavicle
				{
					OFFSET 0.071702 0.114000 -0.018898
					CHANNELS 3 Zrotation Yrotation Xrotation
					JOINT lshoulder
					{
						OFFSET 0.122921 0.045205 -0.019046
						CHANNELS 3 Zrotation Yrotation Xrotation
						JOINT lelbow
						{
							OFFSET 0.255332 -0.015649 -0.022946
							CHANNELS 3 Zrotation Yrotation Xrotation
							JOINT lwrist
							{
								OFFSET 0.265709 0.012698 -0.007375
								CHANNELS 3 Zrotation Yrotation Xrotation
								End Site
								{
									OFFSET 0.000000 0.000000 0.000000
								}
							}
						}
					}
				}
				JOINT rclavicle
				{
					OFFSET -0.082954 0.112472 -0.023707
					CHANNELS 3 Zrotation Yrotation Xrotation
					JOINT rshoulder
					{
						OFFSET -0.113228 0.046853 -0.008472
						CHANNELS 3 Zrotation Yrotation Xrotation
						JOINT relbow
						{
							OFFSET -0.260127 -0.014369 -0.031269
							CHANNELS 3 Zrotation Yrotation Xrotation
							JOINT rwrist
							{
								OFFSET -0.269108 0.006794 -0.006027
								CHANNELS 3 Zrotation Yrotation Xrotation
								End Site
								{
									OFFSET 0.000000 0.000000 0.000000
								}
							}
						}
					}
				}
			}
		}
	}
}
MOTION
Frames: 8
Frame Time: 0.033333
0.471289 0.882204 0.931896 -0.752599 -2.579956 78.356563 20.305036 -2.673104 1.953806 -13.357501 -34.451130 40.057898 -18.877919 10.236709 -11.035966 0.000000 -0.000000 0.000000 -20.536252 3.186453 -2.668840 2.668732 30.577379 38.112363 18.636061 -7.623762 -11.788870 0.000000 -0.000000 0.000000 -0.518236 -1.385695 9.960095 -0.069288 -4.841436 -1.531772 0.168329 -1.328824 0.434309 -1.497430 8.464573 2.668216 -3.573351 6.607255 2.388788 24.823713 -7.260448 -16.829973 16.195258 -5.654432 -23.566720 39.103062 -35.674867 -40.137584 22.919885 -12.258346 -5.297989 -26.427891 7.770596 -23.486162 -18.673071 11.916558 -25.808731 -30.453768 24.889972 -37.567744 -18.543370 8.677368 4.844313 
0.470376 0.888619 0.989042 -1.275221 -2.323263 80.918734 18.993770 -3.217851 1.216588 -7.376064 -30.625600 29.795823 -18.248452 13.467488 5.618538 0.000000 -0.000000 0.000000 -19.661914 2.475006 -3.193413 -0.166807 28.379369 28.187284 17.782312 -8.899729 3.739891 0.000000 -0.000000 0.000000 0.278964 -1.165703 7.351708 -0.062055 -4.112732 0.353434 0.137257 -1.250002 -0.663391 -3.236784 7.507878 2.391445 -2.863781 8.249145 1.216332 19.645520 -4.983112 -13.262299 12.070579 -3.216408 -20.648688 35.945415 -35.671655 -37.686193 21.716751 -13.020177 -4.186296 -20.957457 5.988578 -19.572969 -15.106210 9.020214 -22.557855 -27.704120 24.287537 -36.122662 -20.616234 10.166297 5.620635 
0.469366 0.897724 1.036486 -2.472106 -2.045487 83.566978 17.305963 -3.084741 -0.313001 -5.094781 -27.345722 23.987192 -15.045122 14.430492 11.594504 0.000000 -0.000000 0.000000 -17.728714 2.687055 -5.155007 0.993172 28.436501 24.165123 16.003674 -8.108469 4.338257 0.000000 -0.000000 0.000000 0.768137 -1.270580 5.391663 0.405570 -3.356724 1.943791 0.180090 -1.147074 -1.270942 -4.180748 7.789018 0.764311 -4.042190 9.229126 -0.239224 14.250911 -1.791322 -9.825974 7.779576 -0.174006 -17.263692 32.240183 -35.907898 -33.678301 19.852080 -12.348294 -4.341259 -14.708875 4.761137 -15.000501 -12.599838 7.431537 -20.616447 -25.417037 21.306962 -35.550929 -19.858029 10.874477 6.364190 
0.468038 0.907439 1.071623 -3.154748 -1.956846 85.236461 14.866654 -1.900414 -2.103806 -6.088178 -27.138888 23.114763 -12.289367 12.541217 8.268846 0.000000 -0.000000 0.000000 -15.247092 1.729549 -6.705629 2.756455 28.202425 23.940380 14.519244 -5.489860 0.829019 0.000000 -0.000000 0.000000 1.139607 -1.213174 5.099189 0.466927 -3.162578 2.406576 0.040213 -1.085269 -0.624977 -4.067268 9.114292 -2.059954 -5.198838 9.214132 -1.514022 9.450362 0.475919 -7.147709 3.244572 3.302523 -14.802583 27.892763 -35.989709 -29.029966 17.440887 -12.264287 -3.688493 -9.316445 3.342336 -12.003036 -8.050412 6.165124 -19.038271 -23.115564 19.194025 -34.630309 -20.049726 11.568432 5.282218 
0.467240 0.917585 1.096473 -4.142564 -2.195463 85.671524 11.861219 -0.264197 -3.239702 -7.562539 -24.308893 24.290739 -11.275331 10.813532 5.277403 0.000000 -0.000000 0.000000 -12.456011 0.843243 -7.533865 3.185531 25.429345 25.318446 15.015152 -4.752569 -0.650330 0.000000 -0.000000 0.000000 1.071484 -1.015425 6.770803 0.526738 -2.721477 2.175259 0.120406 -0.836019 -0.202444 -3.923252 9.726538 -4.782776 -6.217132 9.556664 -1.404215 4.574619 1.922315 -5.131251 -3.199775 5.357136 -13.026476 25.996621 -35.307965 -25.772080 15.221665 -12.347286 -4.770409 -4.243042 2.138078 -10.005201 -2.091524 5.127587 -17.075221 -22.596288 19.279076 -35.147720 -21.082999 11.842360 3.540993 
0.466563 0.927060 1.110071 -4.756378 -2.402249 86.222661 9.066125 0.800871 -4.542399 -8.840310 -19.647040 25.895910 -12.644099 8.839395 3.256240 0.000000 -0.000000 0.000000 -9.934383 -0.069631 -8.054101 3.662826 20.759234 26.993831 15.906233 -3.221280 -1.412815 0.000000 -0.000000 0.000000 1.195800 -0.720875 8.236739 0.601833 -2.762799 1.936439 0.083262 -0.949548 -0.282528 -4.254463 10.205948 -7.075124 -6.981819 9.742946 -1.369522 -0.892852 3.263939 -4.143091 -9.620519 6.984245 -11.016534 24.209836 -35.342138 -23.862922 13.052408 -12.052177 -4.259550 1.321928 1.270966 -8.398238 4.151991 4.605131 -13.992334 -23.508114 20.843955 -34.475274 -19.895697 11.722684 2.668415 
0.465898 0.935512 1.112316 -5.186767 -2.372503 86.748879 6.358870 1.994383 -5.868866 -9.958879 -15.929725 28.216152 -14.814908 6.281159 2.937875 0.000000 -0.000000 0.000000 -7.168740 -0.640312 -8.358741 4.364453 16.645492 29.264440 16.302678 -1.391705 -1.589203 0.000000 -0.000000 0.000000 1.410813 -0.659824 9.242142 0.841977 -2.998020 2.257162 0.045321 -0.925678 -0.584567 -4.313153 10.931304 -9.375260 -7.735729 9.841685 -0.834533 -7.408628 3.933367 -3.842780 -15.099193 8.284076 -8.931126 23.033065 -34.860281 -24.249621 12.194992 -11.981508 -2.143529 8.000183 1.182407 -7.035182 8.490299 4.367654 -11.479594 -23.291783 22.312735 -34.529730 -20.136156 11.961218 2.964655 
0.464900 0.942893 1.102987 -5.906505 -2.221616 86.847578 3.921318 2.627805 -6.463046 -11.367114 -13.585598 30.792977 -15.358805 3.744275 2.951378 0.000000 -0.000000 0.000000 -3.800631 0.639387 -7.941396 4.846490 14.407174 31.901802 14.946998 0.359093 -3.334195 0.000000 -0.000000 0.000000 1.710324 -0.636002 10.829138 0.979800 -2.663609 2.178495 -0.126765 -0.777736 -0.784946 -4.345202 11.375035 -11.327153 -8.129176 9.699670 -0.322438 -14.059051 3.716142 -3.406183 -20.155927 9.100244 -6.510064 23.076286 -34.051534 -24.731365 10.366624 -11.379176 -1.161248 14.412972 1.509013 -6.516783 13.515849 3.540536 -8.630652 -23.436772 23.840320 -33.985638 -18.330457 12.916467 2.265700 
